<svg xmlns="http://www.w3.org/2000/svg" xmlns:xlink="http://www.w3.org/1999/xlink" width="500" zoomAndPan="magnify" viewBox="0 0 375 374.999991" height="500" preserveAspectRatio="xMidYMid meet" version="1.0"><path fill="#a2d5c6" d="M 215.28125 274.546875 L 238.820312 236.410156 C 227.828125 251.757812 212.34375 265.203125 207.382812 268.96875 C 202.96875 228.101562 216.132812 220 240.171875 202.164062 C 262.511719 185.59375 267.335938 172.054688 264.964844 161.722656 C 286.382812 189.460938 302.015625 235.992188 215.28125 274.546875 Z M 226.316406 338.191406 C 35.984375 329.355469 130.496094 183.042969 130.496094 183.042969 C 130.496094 183.042969 101.566406 247.957031 161.570312 261.808594 C 199.722656 270.613281 219.242188 275.734375 233.285156 327.636719 C 225.453125 325.40625 200.1875 316.382812 179.496094 302.898438 Z M 114.066406 49.816406 C 131.046875 45.671875 150.308594 64.847656 157.089844 92.644531 C 161.105469 109.105469 159.839844 124.902344 154.613281 135.90625 C 148.992188 147.738281 147.871094 161.210938 151.152344 173.886719 L 173.082031 260.519531 C 169.636719 259.664062 166.023438 258.824219 162.21875 257.945312 C 160.378906 257.519531 158.621094 257.046875 156.945312 256.53125 L 138.277344 177.027344 C 135.355469 164.261719 128.15625 152.816406 117.71875 144.90625 C 108.011719 137.546875 99.613281 124.105469 95.597656 107.644531 C 88.820312 79.847656 97.085938 53.957031 114.066406 49.816406 Z M 177.066406 114.351562 L 186.726562 36.773438 L 194.265625 37.714844 L 186.308594 101.574219 L 191.722656 102.246094 L 199.675781 38.386719 L 206.890625 39.289062 L 198.9375 103.140625 L 204.347656 103.816406 L 212.300781 39.960938 L 219.515625 40.859375 L 211.5625 104.714844 L 216.96875 105.390625 L 224.925781 41.535156 L 232.140625 42.433594 L 224.1875 106.285156 L 229.597656 106.964844 L 237.554688 43.105469 L 245.085938 44.046875 L 235.425781 121.621094 C 234.1875 131.570312 228.109375 139.738281 219.847656 144.054688 C 212.914062 147.671875 208.15625 154.414062 207.191406 162.171875 L 199.363281 269.6875 C 193.460938 266.515625 186.839844 264.210938 179.335938 262.148438 L 194.492188 160.589844 C 195.457031 152.832031 192.496094 145.132812 186.664062 139.917969 C 179.714844 133.710938 175.824219 124.304688 177.066406 114.351562 Z M 187.484375 -0.0117188 C 83.929688 -0.0117188 -0.0117188 83.933594 -0.0117188 187.484375 C -0.0117188 291.03125 83.929688 374.976562 187.484375 374.976562 C 291.03125 374.976562 374.976562 291.03125 374.976562 187.484375 C 374.976562 83.933594 291.03125 -0.0117188 187.484375 -0.0117188 " fill-opacity="1" fill-rule="nonzero"/></svg>